<svg width="292" height="78" viewBox="0 0 292 78" xmlns="http://www.w3.org/2000/svg"><title>Artboard</title><g fill="#ffffff" fill-rule="evenodd"><path d="M261.8 48.9c-2.9 0-3.1.2-3.1 2 0 8.5 6 16.8 17.7 16.7 3.5 0 8.3-.7 11.6-5.9 1.4-.2 3.2.7 3.2 2.6-5.1 9.6-14.3 12.9-21.8 12.9-16.9 0-26-10.7-26-23.1 0-14.3 11.3-25.4 27-25.4 13 0 20 7.6 20 16.3 0 2.1-.6 3.7-4.5 3.7l-24.1.2zm8.2-5c1.7 0 3.8-.2 5.1-1 .6-.3.9-1.5.9-2.6 0-3.7-2.4-6.2-6.6-6.2-5.2 0-9.7 4.6-9.7 8.2 0 1.6 1.7 1.7 5.8 1.7l4.5-.1zM41 30.3c7.9 0 14.1-.1 22.1-.4 1.4.1 1.2 3.5.4 4l-1.9.3c-2.9.6-4.6 1.1-4.6 1.7 0 .9.2 1.6 1 3.5 2.3 5.5 5.8 12.8 8.5 18.3 3-6.6 5-12.1 7-17.4.8-2 1.1-3.6 1.1-4.4 0-.6-1-1.1-3.1-1.6l-2.1-.4c-.8-.8-.8-3.5.5-4 4.1.2 7.1.3 10.2.3 3.6 0 6.9-.1 9.6-.4 1.1.5 1.4 2.9.4 4l-1.8.3c-4.1.8-5 1.9-7 6.1-5.7 11.6-11.5 24-16.7 36.1-.8.7-1.6.8-2.9.8-1.2 0-2.1-.1-2.9-.8-2.6-6.1-9.2-19.4-12.9-26.6-3.2 5.9-10.7 21-13.6 26.6-.7.7-1.6.8-2.9.8-1.3 0-2.1-.1-2.9-.8-6-12.8-12.2-25.8-18.3-37.6-1.8-3.3-3-3.8-5.1-4.3L1 34c-.9-.9-.9-3.4.4-4 5.1.2 9.1.3 14.4.3H41zM37.6 35c-1.7-.3-3.7-.5-6-.5-4 0-6.4.5-6.4 1.7 0 .7.4 2.1 1.1 3.7 1.7 4 6.7 14.2 8.9 17.8 1.7-3.1 6-11.2 6.6-13.5.4-1.5.4-2.5.4-3.4.1-1.7-2.1-5.4-4.6-5.8z"/><path d="M102 48.7c-2.9 0-3.1.2-3.1 2 0 8.5 6 16.8 17.7 16.7 3.5 0 8.3-.7 11.6-5.9 1.4-.2 3.2.7 3.2 2.6-5.1 9.6-14.3 12.9-21.8 12.9-16.9 0-26-10.7-26-23.1 0-14.3 11.3-25.4 26.9-25.4 13 0 20 7.6 20 16.3 0 2.1-.6 3.7-4.5 3.7l-24 .2zm8.2-5c1.7 0 3.8-.2 5.1-1 .6-.3.9-1.5.9-2.6 0-3.7-2.4-6.2-6.6-6.2-5.2 0-9.7 4.6-9.7 8.2 0 1.6 1.7 1.7 5.8 1.7l4.5-.1z"/><path d="M138 17.9c0-4.5 0-5.8-2.4-7.1l-2.1-1.1c-.9-.7-.9-2.7 0-3.4 5.2-1.1 12.5-3.8 18.6-6.3.7 0 1.6.2 2.1.8-.2 4.6-.4 9.4-.4 16.5v46.6c0 7.9.5 8.8 4.7 9.3l2.1.2c1 .7 1 3.3-.1 4-4-.2-9.1-.3-14.6-.3-5.2 0-10.4.1-14.6.3-1.1-.7-1.1-3.3-.1-4l2.3-.2c4-.3 4.5-1.4 4.5-9.3v-46zM187.7 63.8c0 7.9.5 8.9 4.5 9.3l2.3.2c1 .7 1 3.3-.1 4-4.3-.2-9-.3-14.6-.3-5.5 0-10.6.1-14.6.3-1.1-.7-1.1-3.3-.1-4l2.3-.2c4-.3 4.5-1.4 4.5-9.3v-17c0-4.5 0-5.9-2.3-7.2l-1.7-1c-.9-.7-.9-2.7 0-3.4 5.7-1.5 14.4-4.5 18-6.6 1 0 1.7.3 2.2 1-.2 3.4-.4 8.4-.4 13.5v20.7zm1-47.2c0 5.4-4.5 8.3-9.1 8.3-5.4 0-8.5-3.4-8.5-8 0-5 4.3-8.3 9.1-8.3 5-.1 8.5 3.4 8.5 8zM192.3 34.1c-1.1-.8-1.2-3.5.4-4 4.5.2 8.6.3 15.1.3 4.5 0 9-.2 13.5-.3 1.1.6 1 3.4.2 4l-1.9.5c-1.5.3-2.1.5-2.1 1.1 0 .7.5 2.3 1.1 4 2.4 6.2 5.1 12.1 7.7 17.5 2.7-5.7 5.7-11.7 8.3-18.6.5-1.1.7-2.1.7-2.8 0-.6-.9-.9-2.9-1.4l-1.7-.3c-1.1-.7-1.1-3.4.1-4 3.9.2 6.5.3 10 .3 3.9 0 6.7-.2 9.4-.3 1.3.6 1.1 3.3.2 4l-2.1.3c-3.7.6-4.6 1.9-7.1 6.2-6.3 11.7-11.8 23.8-17.4 35.9-.6.5-1.6.8-2.8.8-1.1 0-2.2-.3-2.9-.8-6.3-14.3-8.9-19.7-16.6-34.7-2.9-5.5-3.7-6.5-6.7-7.1l-2.5-.6z"/></g></svg>
