<svg class="white" xmlns="http://www.w3.org/2000/svg" width="175.697" height="27.434" viewBox="0 0 175.697 27.434"><g fill="#FFFFFF"><path d="M63.042 27.33c-7.41 0-13.44-6.028-13.44-13.44 0-7.41 6.03-13.44 13.44-13.44s13.44 6.03 13.44 13.44-6.03 13.44-13.44 13.44m0-24.813c-6.27 0-11.372 5.103-11.372 11.372 0 6.27 5.103 11.372 11.372 11.372 6.27 0 11.372-5.103 11.372-11.373s-5.1-11.373-11.372-11.373M100.2 27.432c-.57 0-1.033-.463-1.033-1.033V1.5c0-.57.463-1.034 1.033-1.034.572 0 1.034.462 1.034 1.034v24.898c0 .57-.462 1.034-1.034 1.034M124.875 27.2c-.263 0-.525-.1-.728-.3l-12.363-12.26c-.195-.193-.306-.458-.306-.733 0-.275.108-.54.306-.733L124.27.764c.405-.4 1.06-.4 1.463.006.4.404.4 1.06-.004 1.462L113.98 13.91 125.6 25.433c.405.4.407 1.057.007 1.463-.203.2-.47.303-.735.303M162.26 27.393c-5.168 0-8.32-2.457-10.06-4.52-2.08-2.47-3.273-5.718-3.273-8.91V1.586c0-.57.464-1.033 1.033-1.033.57 0 1.034.463 1.034 1.033v12.378c0 2.674 1.042 5.508 2.79 7.58 1.452 1.726 4.103 3.78 8.476 3.78 4.324 0 7.005-2.064 8.49-3.797 1.804-2.104 2.88-4.938 2.88-7.582v-12.4c0-.57.464-1.032 1.034-1.032s1.033.463 1.033 1.033v12.4c0 3.124-1.262 6.46-3.377 8.927-1.77 2.063-4.95 4.52-10.06 4.52M20.254 2.525H1.04C.47 2.525.005 2.063.005 1.49.006.92.47.458 1.04.458h19.215c.57 0 1.034.463 1.034 1.034 0 .573-.464 1.035-1.036 1.035M25.77 27.292H1.033c-.42 0-.798-.254-.956-.643-.16-.39-.068-.835.23-1.13L21 5.168c.407-.4 1.062-.396 1.463.014.4.406.396 1.062-.012 1.462L3.56 25.225h22.21c.57 0 1.034.463 1.034 1.032 0 .573-.463 1.035-1.035 1.035M27.045 1.478c0 .674-.546 1.22-1.22 1.22s-1.22-.546-1.22-1.22.546-1.22 1.22-1.22 1.22.546 1.22 1.22"></path><path d="M25.826 2.956c-.813 0-1.48-.662-1.48-1.48 0-.813.665-1.476 1.48-1.476s1.48.663 1.48 1.478c-.002.815-.666 1.478-1.48 1.478m0-2.44c-.53 0-.96.432-.96.96 0 .53.43.964.96.964s.96-.433.96-.963-.43-.96-.96-.96"></path></g></svg>
